<?xml version="1.0" encoding="UTF-8"?>
<svg id="Ebene_2" data-name="Ebene 2" xmlns="http://www.w3.org/2000/svg" viewBox="0 0 596 582">
  <defs>
    <style>
      .cls-1 {
        fill: none;
        stroke: #000;
        stroke-miterlimit: 10;
      }

      .cls-2 {
        stroke-width: 0px;
      }
    </style>
  </defs>
  <path class="cls-2" d="m307.49,540.2c-65.09,0-126.29-25.53-172.32-71.88-46.03-46.35-71.37-107.98-71.37-173.53s25.35-127.18,71.37-173.53c46.03-46.35,107.22-71.88,172.32-71.88s126.29,25.53,172.32,71.88c46.03,46.35,71.37,107.98,71.37,173.53s-25.35,127.18-71.37,173.53c-46.03,46.35-107.22,71.88-172.32,71.88Zm0-489.83c-133.82,0-242.69,109.64-242.69,244.41s108.87,244.42,242.69,244.42,242.69-109.64,242.69-244.42S441.31,50.37,307.49,50.37Z"/>
  <path class="cls-2" d="m306.04,494.37c-110.35,0-200.12-89.77-200.12-200.12s89.77-200.12,200.12-200.12,200.12,89.77,200.12,200.12-89.77,200.12-200.12,200.12Zm0-399.23c-109.79,0-199.12,89.32-199.12,199.12s89.32,199.12,199.12,199.12,199.12-89.32,199.12-199.12-89.32-199.12-199.12-199.12Z"/>
  <polygon class="cls-1" points="211.19 168.77 211.19 420.34 402.85 420.34 402.85 374.38 263.28 374.38 263.28 311.4 385.49 311.4 385.49 266.13 263.28 266.13 263.28 212.68 395.36 212.68 395.36 168.77 211.19 168.77"/>
</svg>